<?xml version="1.0" standalone="no"?>
<!DOCTYPE svg PUBLIC "-//W3C//DTD SVG 20010904//EN"
 "http://www.w3.org/TR/2001/REC-SVG-20010904/DTD/svg10.dtd">
<svg version="1.0" xmlns="http://www.w3.org/2000/svg"
 width="145.000000pt" height="145.000000pt" viewBox="0 0 145.000000 145.000000"
 preserveAspectRatio="xMidYMid meet">
<metadata>
Created by potrace 1.14, written by Peter Selinger 2001-2017
</metadata>
<g transform="translate(0.000000,145.000000) scale(0.100000,-0.100000)"
fill="#000000" stroke="none">
<path d="M242 969 c4 -22 0 -33 -14 -40 -10 -5 -28 -29 -39 -52 -12 -23 -30
-53 -40 -66 -11 -13 -19 -29 -19 -36 0 -20 42 -33 75 -23 45 13 99 1 157 -35
29 -18 65 -39 80 -46 l27 -14 -25 -66 c-14 -36 -31 -69 -39 -74 -28 -15 -17
-39 16 -35 28 3 33 8 52 67 21 65 35 65 36 -1 1 -42 80 -71 117 -43 23 17 9
35 -27 35 -27 0 -30 3 -24 23 20 66 40 91 75 95 19 2 41 7 50 12 12 6 26 -2
54 -31 35 -38 37 -42 22 -62 -28 -40 -41 -53 -58 -60 -29 -11 -22 -37 10 -37
22 0 36 11 65 49 56 73 61 76 101 57 27 -13 33 -21 29 -37 -3 -11 -12 -23 -19
-26 -8 -3 -14 -14 -14 -24 0 -14 7 -19 25 -19 29 0 42 21 50 83 5 38 3 52 -14
73 -12 15 -21 41 -21 58 l0 30 48 -48 c86 -87 191 -129 308 -122 108 6 144 48
52 60 -28 4 -64 14 -80 22 -27 14 -122 91 -198 160 -75 69 -111 90 -169 99
-14 2 -54 9 -89 16 -51 10 -80 10 -155 -1 -202 -29 -277 -18 -352 51 -23 21
-46 39 -50 39 -4 0 -5 -14 -3 -31z"/>
</g>
</svg>
